<svg xmlns="http://www.w3.org/2000/svg" width="32" height="32" viewBox="0 0 32 32"><path d="M7.17,6.097C7.935,5.286 8.945,4.932 9.92,5.011C10.719,5.075 11.511,5.431 12.14,6.097L16,10.194L19.86,6.097C20.489,5.431 21.281,5.075 22.08,5.011C23.055,4.932 24.065,5.286 24.829,6.097L27.942,9.4C28.618,10.118 28.976,11.061 28.999,12.024C29.015,12.702 28.866,13.377 28.556,13.978C28.424,14.234 28.488,14.559 28.733,14.711L29.576,15.232C29.804,15.373 30.105,15.31 30.237,15.075C30.772,14.12 31.024,13.041 30.998,11.976C30.964,10.555 30.436,9.131 29.397,8.029L26.285,4.726C25.101,3.469 23.495,2.891 21.92,3.017C20.629,3.121 19.375,3.697 18.405,4.726L16,7.278L13.595,4.726C12.625,3.697 11.371,3.121 10.08,3.017C8.505,2.891 6.9,3.469 5.715,4.725L2.603,8.029C1.564,9.131 1.036,10.555 1.002,11.976C0.965,13.494 1.493,15.041 2.603,16.219L13.673,27.978L13.681,27.987C13.934,28.255 14.222,28.473 14.534,28.637C14.992,28.878 15.493,28.999 15.996,29C16.501,29.001 17.006,28.879 17.466,28.637C17.777,28.473 18.066,28.255 18.319,27.987L18.327,27.978L18.868,27.403C19.061,27.199 19.048,26.876 18.839,26.689L18.096,26.019C17.894,25.837 17.583,25.85 17.397,26.048L16.864,26.615C16.761,26.723 16.649,26.806 16.534,26.867C16.364,26.957 16.181,27 15.998,27C15.817,27 15.635,26.956 15.465,26.867C15.35,26.806 15.239,26.723 15.136,26.615C15.021,26.493 13.706,25.096 12.03,23.315L4.058,14.847C3.335,14.08 2.976,13.056 3.001,12.024C3.024,11.061 3.382,10.118 4.059,9.4L7.17,6.097Z" fill="#FFFFFF"/><path d="M23.827,17.082L24.104,20.775L25.967,22.81L25.678,23.08L23.298,21.143L23.43,17.069L23.827,17.082Z" fill="#FFFFFF"/><path d="M23.745,26.415C26.917,26.415 29.489,23.859 29.489,20.707C29.489,17.555 26.917,15 23.745,15C20.572,15 18,17.555 18,20.707C18,23.859 20.572,26.415 23.745,26.415ZM23.745,24.983C21.368,24.983 19.441,23.069 19.441,20.707C19.441,18.346 21.368,16.431 23.745,16.431C26.122,16.431 28.049,18.346 28.049,20.707C28.049,23.069 26.122,24.983 23.745,24.983Z" fill="#FFFFFF" fill-rule="evenodd"/></svg>