<svg xmlns="http://www.w3.org/2000/svg" width="32" height="32" viewBox="0 0 32 32"><path d="M16,2C14.343,2 13,3.343 13,5V6.697C13,7.533 13.418,8.314 14.113,8.777L14.693,9.164C15.022,9.383 15.408,9.5 15.803,9.5H13.769C12.737,9.5 11.73,9.82 10.886,10.415L2.665,16.218L3.69,17.926C4.496,19.271 6.202,19.767 7.604,19.066L11.971,16.883C11.99,16.997 12,17.114 12,17.231V18.155C12,18.327 11.985,18.499 11.956,18.669L10.159,29H6V31H10.579C11.309,31 11.932,30.476 12.057,29.757L13.926,19.011C13.975,18.729 14,18.442 14,18.155V17.231C14,16.595 13.852,15.968 13.568,15.399C13.225,14.714 12.392,14.436 11.707,14.779L6.709,17.277C6.242,17.511 5.673,17.345 5.405,16.897L5.335,16.782L12.04,12.049C12.546,11.692 13.15,11.5 13.769,11.5H27.5V11.7C27.5,12.211 27.114,12.64 26.605,12.694L19.243,13.469C18.617,13.535 18.098,13.986 17.945,14.597L17.709,15.541C17.57,16.096 17.5,16.666 17.5,17.239V17.855C17.5,18.355 17.554,18.854 17.66,19.342L19.937,29.819C20.087,30.508 20.697,31 21.403,31H27.5V29H25V22.855C26.446,22.425 27.5,21.086 27.5,19.5C27.5,17.567 25.933,16 24,16C22.067,16 20.5,17.567 20.5,19.5C20.5,21.086 21.554,22.425 23,22.855V29H21.806L19.614,18.917C19.538,18.569 19.5,18.212 19.5,17.855V17.239C19.5,16.83 19.55,16.423 19.649,16.026L19.801,15.421L26.814,14.683C28.341,14.522 29.5,13.235 29.5,11.7V9.5H16.197C16.592,9.5 16.978,9.383 17.307,9.164L17.887,8.777C18.582,8.314 19,7.533 19,6.697V5C19,3.343 17.657,2 16,2ZM15,5C15,4.448 15.448,4 16,4C16.552,4 17,4.448 17,5V6.697C17,6.864 16.916,7.021 16.777,7.113L16.197,7.5H15.803L15.223,7.113C15.084,7.021 15,6.864 15,6.697V5ZM22.5,19.5C22.5,18.672 23.172,18 24,18C24.828,18 25.5,18.672 25.5,19.5C25.5,20.328 24.828,21 24,21C23.172,21 22.5,20.328 22.5,19.5Z" fill="#FFFFFF" fill-rule="evenodd"/><path d="M17.177,25.785C16.92,24.498 15.08,24.498 14.823,25.785L13.78,31H18.22L17.177,25.785Z" fill="#FFFFFF"/></svg>